<svg width="40" height="40" viewBox="0 0 40 40" fill="none" xmlns="http://www.w3.org/2000/svg">
<circle cx="20" cy="20" r="20" transform="rotate(-90 20 20)" fill="#F7941E"/>
<path d="M24 20C24.0005 20.2336 23.9191 20.4601 23.77 20.64L18.77 26.64C18.6003 26.8442 18.3564 26.9726 18.092 26.997C17.8275 27.0214 17.5642 26.9397 17.36 26.77C17.1558 26.6002 17.0274 26.3563 17.003 26.0919C16.9786 25.8275 17.0603 25.5642 17.23 25.36L21.71 20L17.39 14.64C17.307 14.5377 17.2449 14.42 17.2075 14.2936C17.1701 14.1673 17.158 14.0348 17.1719 13.9038C17.1859 13.7728 17.2256 13.6458 17.2887 13.5301C17.3519 13.4145 17.4373 13.3125 17.54 13.23C17.6429 13.1384 17.7635 13.069 17.8944 13.0262C18.0252 12.9834 18.1635 12.9681 18.3006 12.9813C18.4377 12.9944 18.5705 13.0357 18.6909 13.1026C18.8112 13.1695 18.9165 13.2605 19 13.37L23.83 19.37C23.9555 19.5551 24.0154 19.7769 24 20Z" fill="white"/>
</svg>
