<svg width="40" height="40" viewBox="0 0 40 40" fill="none" xmlns="http://www.w3.org/2000/svg">
<rect width="40" height="40" rx="8" fill="#F7941E"/>
<path d="M11.9999 18.0045L19.9999 23.0045L27.9999 18.0045L19.9999 13.0045L11.9999 18.0045ZM29.9999 18.0045V28.0045C29.9999 28.535 29.7892 29.0437 29.4141 29.4187C29.039 29.7938 28.5303 30.0045 27.9999 30.0045H11.9999C11.4694 30.0045 10.9607 29.7938 10.5857 29.4187C10.2106 29.0437 9.99988 28.535 9.99988 28.0045V18.0045C9.99988 17.2745 10.3899 16.6445 10.9699 16.2945L19.9999 10.6445L29.0299 16.2945C29.6099 16.6445 29.9999 17.2745 29.9999 18.0045Z" fill="white"/>
</svg>
