<svg width="144" height="153" viewBox="0 0 144 153" fill="none" xmlns="http://www.w3.org/2000/svg">
<mask id="path-1-inside-1" fill="white">
<path fill-rule="evenodd" clip-rule="evenodd" d="M76.867 143.838C114.362 141.335 144 110.129 144 72C144 32.2355 111.765 0 72 0C32.2355 0 0 32.2355 0 72C0 109.415 28.5382 140.164 65.0345 143.667L70.134 152.5C70.5189 153.167 71.4811 153.167 71.866 152.5L76.867 143.838Z"/>
</mask>
<path fill-rule="evenodd" clip-rule="evenodd" d="M76.867 143.838C114.362 141.335 144 110.129 144 72C144 32.2355 111.765 0 72 0C32.2355 0 0 32.2355 0 72C0 109.415 28.5382 140.164 65.0345 143.667L70.134 152.5C70.5189 153.167 71.4811 153.167 71.866 152.5L76.867 143.838Z" fill="#FCF9F9"/>
<path d="M76.867 143.838L76.7338 141.843L75.6687 141.914L75.1349 142.838L76.867 143.838ZM65.0345 143.667L66.7665 142.667L66.2513 141.775L65.2256 141.677L65.0345 143.667ZM70.134 152.5L71.866 151.5L70.134 152.5ZM71.866 152.5L70.134 151.5L71.866 152.5ZM142 72C142 109.069 113.185 139.409 76.7338 141.843L77.0002 145.834C115.539 143.261 146 111.189 146 72H142ZM72 2C110.66 2 142 33.3401 142 72H146C146 31.1309 112.869 -2 72 -2V2ZM2 72C2 33.3401 33.3401 2 72 2V-2C31.1309 -2 -2 31.1309 -2 72H2ZM65.2256 141.677C29.7453 138.271 2 108.374 2 72H-2C-2 110.455 27.3312 142.057 64.8433 145.658L65.2256 141.677ZM71.866 151.5L66.7665 142.667L63.3024 144.667L68.4019 153.5L71.866 151.5ZM70.134 151.5C70.5189 150.833 71.4811 150.833 71.866 151.5L68.4019 153.5C69.5566 155.5 72.4434 155.5 73.5981 153.5L70.134 151.5ZM75.1349 142.838L70.134 151.5L73.5981 153.5L78.599 144.838L75.1349 142.838Z" fill="#F7941E" mask="url(#path-1-inside-1)"/>
</svg>
