<svg xmlns="http://www.w3.org/2000/svg" viewBox="0 0 196.74 123.89"><defs><style>.cls-1{fill:#82b9c1;}.cls-2{fill:#f7941d;}.cls-3{fill:#fdb410;}.cls-4{fill:#fff;}</style></defs><title>Asset 4</title><g id="Layer_2" data-name="Layer 2"><g id="heaf"><path class="cls-1" d="M91,33.07,68.26,55.24l5.37,31.32L45.51,71.77l-.84.44v51.68h56.18a55.93,55.93,0,0,0-7.68-28.35,55.93,55.93,0,0,1,7.68,28.34h95.89V33.07Z"/><polygon class="cls-2" points="44.67 67.71 44.67 33.07 91.01 33.07 91.02 33.06 59.57 28.49 45.51 0 31.45 28.49 0 33.06 22.75 55.24 17.38 86.56 44.67 72.21 44.67 67.71 44.67 67.71"/><polygon class="cls-3" points="73.63 86.56 68.26 55.24 91.01 33.07 44.67 33.07 44.67 67.71 44.67 67.71 44.67 72.21 45.51 71.78 73.63 86.56"/><path class="cls-4" d="M121.11,111.69v-5a39.79,39.79,0,0,1-12.25-2.49,3.43,3.43,0,0,1-2.1-4l1-3.72a3.37,3.37,0,0,1,4.52-2.29,30.28,30.28,0,0,0,11.18,2.24c5,0,8.49-1.94,8.49-5.48,0-3.36-2.83-5.49-9.38-7.7-9.46-3.18-15.93-7.61-15.93-16.18,0-7.79,5.49-13.89,15-15.75v-5a3.38,3.38,0,0,1,3.38-3.38h1.9a3.38,3.38,0,0,1,3.38,3.38v4.4a35.43,35.43,0,0,1,9.91,1.72,3.38,3.38,0,0,1,2.19,4.05l-.87,3.4A3.38,3.38,0,0,1,137,62.17a27.09,27.09,0,0,0-9.27-1.59c-5.74,0-7.6,2.48-7.6,5,0,2.92,3.1,4.77,10.62,7.61,10.52,3.71,14.77,8.57,14.77,16.54s-5.57,14.59-15.75,16.36v5.64a3.38,3.38,0,0,1-3.38,3.38h-1.91a3.38,3.38,0,0,1-3.38-3.38"/></g></g></svg>