<svg xmlns="http://www.w3.org/2000/svg" viewBox="0 0 183.61 123.75"><defs><style>.cls-1{fill:#ed6f3e;}.cls-2{fill:#f7941d;}.cls-3{fill:#fdb410;}.cls-4{fill:#fff;}</style></defs><title>Asset 2</title><g id="Layer_2" data-name="Layer 2"><g id="heaf"><polygon class="cls-1" points="165.87 61.73 165.87 105.91 121.59 105.91 121.59 123.75 183.61 123.75 183.61 61.73 165.87 61.73"/><polygon class="cls-2" points="165.87 61.73 165.87 0 0 0 0 105.91 121.59 105.91 121.59 61.73 165.87 61.73"/><rect class="cls-3" x="121.59" y="61.73" width="44.28" height="44.18"/><path class="cls-4" d="M52.24,37.12V68.79a3.19,3.19,0,0,0,4.93,2.67L81.49,55.62a3.18,3.18,0,0,0,0-5.33L57.17,34.45a3.19,3.19,0,0,0-4.93,2.67"/></g></g></svg>