<svg xmlns="http://www.w3.org/2000/svg" viewBox="0 0 198.54 166.1"><defs><style>.cls-1{fill:#fdb410;}.cls-2{fill:#ed6f3e;}.cls-3{fill:#007860;}.cls-4{fill:#82b9c1;}.cls-5{fill:none;stroke:#fff;stroke-miterlimit:10;stroke-width:12.63px;}</style></defs><title>Asset 1</title><g id="Layer_2" data-name="Layer 2"><g id="heaf"><path class="cls-1" d="M114.8,40.43A40.43,40.43,0,1,1,74.38,0,40.42,40.42,0,0,1,114.8,40.43"/><path class="cls-2" d="M102.52,106.68a48,48,0,0,1,.86-9A74.29,74.29,0,0,0,0,166.1H148.75a75.06,75.06,0,0,0-.89-11.49A48,48,0,0,1,102.52,106.68Z"/><path class="cls-3" d="M150.53,58.67a48,48,0,0,0-47.15,39,74.91,74.91,0,0,1,14.5,8.22h0a74.48,74.48,0,0,1,24.87,31h0a74.15,74.15,0,0,1,5.11,17.77c.88,0,1.77.08,2.67.08a48,48,0,0,0,0-96Z"/><path class="cls-4" d="M142.75,136.84a74.48,74.48,0,0,0-24.87-31h0a74.91,74.91,0,0,0-14.5-8.22,48,48,0,0,0,44.48,57,74.15,74.15,0,0,0-5.11-17.77Z"/><polyline class="cls-5" points="132.84 102.89 148 121.84 177.06 83.94"/></g></g></svg>