<svg width="80" height="80" viewBox="0 0 80 80" fill="none" xmlns="http://www.w3.org/2000/svg">
<rect width="80" height="80" rx="10" fill="#F7941E"/>
<path fill-rule="evenodd" clip-rule="evenodd" d="M24 21C22.8954 21 22 21.8954 22 23V25H58V23C58 21.8954 57.1046 21 56 21H24ZM41.8 57.9999V54.3999H56.2C56.6774 54.3999 57.1352 54.2103 57.4728 53.8727C57.8104 53.5351 58 53.0773 58 52.5999V27.3999H22V52.5999C22 53.0773 22.1896 53.5351 22.5272 53.8727C22.8648 54.2103 23.3226 54.3999 23.8 54.3999H38.2V57.9999H41.8ZM29.7999 35.51C30.6879 34.9166 31.732 34.5999 32.8 34.5999V39.9999H38.2C38.2 41.0679 37.8833 42.112 37.2899 43C36.6966 43.888 35.8532 44.5801 34.8665 44.9889C33.8798 45.3976 32.794 45.5045 31.7465 45.2961C30.699 45.0878 29.7368 44.5735 28.9816 43.8183C28.2264 43.0631 27.7121 42.1009 27.5038 41.0534C27.2954 40.0059 27.4023 38.9201 27.8111 37.9334C28.2198 36.9467 28.9119 36.1033 29.7999 35.51ZM41.8 38.1999V34.5999H52.6V38.1999H41.8ZM41.8 45.3999V41.7999H52.6V45.3999H41.8Z" fill="white"/>
</svg>
