<svg width="80" height="80" viewBox="0 0 80 80" fill="none" xmlns="http://www.w3.org/2000/svg">
<rect y="0.000488281" width="80" height="80" rx="10" fill="#F7941E"/>
<path fill-rule="evenodd" clip-rule="evenodd" d="M38.9679 22.8849C38.9679 23.3727 39.9969 30.3735 39.9969 30.3735C39.9969 30.3735 41.0211 23.3727 41.0211 22.8843C41.0211 22.3959 40.5615 22.0005 39.9945 22.0005C39.4275 22.0005 38.9679 22.3971 38.9679 22.8849ZM39.4935 38.7633C39.4935 38.7633 34.2045 28.4121 33.9021 27.6633C33.5997 26.9145 33.7803 26.1357 34.3059 25.9233C34.8321 25.7109 35.5029 26.1459 35.8053 26.8947C36.1077 27.6423 39.4935 38.7633 39.4935 38.7633ZM38.9727 32.3835C38.9727 32.8317 39.9999 39.2649 39.9999 39.2649C39.9999 39.2649 41.0271 32.8323 41.0271 32.3835C41.0271 31.9347 40.5663 31.5711 39.9999 31.5711C39.4335 31.5711 38.9727 31.9353 38.9727 32.3835ZM41.0271 47.6481C41.0271 47.1993 39.9999 40.7667 39.9999 40.7667C39.9999 40.7667 38.9727 47.1987 38.9727 47.6481C38.9727 48.0975 39.4335 48.4605 39.9999 48.4605C40.5663 48.4605 41.0271 48.0969 41.0271 47.6481ZM39.2488 40.0155C39.2488 40.0155 32.8162 41.0427 32.368 41.0427C31.9192 41.0427 31.5556 40.5825 31.5556 40.0155C31.5556 39.4491 31.9192 38.9889 32.368 38.9889C32.8162 38.9889 39.2488 40.0155 39.2488 40.0155ZM47.6326 38.9889C47.1838 38.9889 40.7512 40.0155 40.7512 40.0155C40.7512 40.0155 47.1838 41.0427 47.6326 41.0427C48.0814 41.0427 48.445 40.5825 48.445 40.0155C48.445 39.4491 48.0808 38.9889 47.6326 38.9889ZM39.4684 39.4851C39.4684 39.4851 34.1938 35.6631 33.8776 35.3457C33.5602 35.0289 33.628 34.4463 34.0294 34.0455C34.4302 33.6447 35.0122 33.5769 35.3296 33.8937C35.6458 34.2105 39.4684 39.4851 39.4684 39.4851ZM46.1225 44.6865C45.8063 44.3691 40.5317 40.5471 40.5317 40.5471C40.5317 40.5471 44.3543 45.8211 44.6705 46.1385C44.9879 46.4559 45.5699 46.3881 45.9707 45.9873C46.3721 45.5859 46.4399 45.0039 46.1225 44.6865ZM39.4684 40.5471C39.4684 40.5471 35.6458 45.8211 35.3296 46.1385C35.0122 46.4559 34.4302 46.3881 34.0294 45.9873C33.628 45.5859 33.5602 45.0039 33.8776 44.6865C34.1938 44.3691 39.4684 40.5471 39.4684 40.5471ZM44.6705 33.8937C44.3543 34.2105 40.5317 39.4851 40.5317 39.4851C40.5317 39.4851 45.8063 35.6631 46.1225 35.3457C46.4399 35.0289 46.3721 34.4463 45.9707 34.0455C45.5699 33.6447 44.9879 33.5769 44.6705 33.8937ZM46.0978 52.3695C45.7954 51.6201 40.5064 41.2695 40.5064 41.2695C40.5064 41.2695 43.8922 52.3893 44.1946 53.1381C44.497 53.8869 45.1678 54.3213 45.694 54.1083C46.2196 53.8965 46.4002 53.1177 46.0978 52.3695ZM38.7467 40.5225C38.7467 40.5225 28.3955 45.8115 27.6467 46.1139C26.8979 46.4169 26.1191 46.2357 25.9067 45.7095C25.6943 45.1845 26.1293 44.5125 26.8781 44.2101C27.6263 43.9077 38.7467 40.5225 38.7467 40.5225ZM52.3535 33.9183C51.6047 34.2207 41.2535 39.5097 41.2535 39.5097C41.2535 39.5097 52.3739 36.1239 53.1221 35.8221C53.8709 35.5197 54.3059 34.8483 54.0935 34.3227C53.8811 33.7971 53.1023 33.6153 52.3535 33.9183ZM38.7555 39.4881C38.7555 39.4881 27.6957 35.9091 26.9529 35.5935C26.2101 35.2785 25.7871 34.5999 26.0085 34.0773C26.2299 33.5559 27.0129 33.3885 27.7557 33.7041C28.4985 34.0185 38.7555 39.4881 38.7555 39.4881ZM53.047 44.4381C52.3042 44.1231 41.2444 40.5441 41.2444 40.5441C41.2444 40.5441 51.5014 46.0131 52.2442 46.3281C52.987 46.6443 53.77 46.4769 53.9914 45.9543C54.2128 45.4329 53.7898 44.7537 53.047 44.4381ZM39.472 41.2605C39.472 41.2605 35.893 52.3203 35.5774 53.0637C35.2618 53.8065 34.5831 54.2295 34.0612 54.0081C33.5392 53.7861 33.3724 53.0037 33.6868 52.2609C34.003 51.5175 39.472 41.2605 39.472 41.2605ZM44.4227 26.9691C44.1071 27.7119 40.5281 38.7717 40.5281 38.7717C40.5281 38.7717 45.9971 28.5147 46.3133 27.7713C46.6283 27.0279 46.4609 26.2461 45.9389 26.0247C45.4169 25.8033 44.7383 26.2257 44.4227 26.9691ZM40.0037 49.0413C40.0037 49.0413 41.0321 56.5317 41.0321 57.0537C41.0321 57.5757 40.5725 58.0005 40.0055 58.0005C39.4385 58.0005 38.9789 57.5775 38.9789 57.0549C38.9789 56.5323 40.0037 49.0413 40.0037 49.0413ZM46.3953 46.3905C46.3953 46.3905 52.4193 50.9601 52.7877 51.3291C53.1579 51.6987 53.1321 52.3227 52.7313 52.7241C52.3305 53.1249 51.7059 53.1507 51.3369 52.7817C50.9673 52.4133 46.3953 46.3905 46.3953 46.3905ZM27.1671 28.6275C27.5127 28.9725 33.1905 33.1953 33.1905 33.1953C33.1905 33.1953 28.9647 27.5199 28.6191 27.1755C28.2741 26.8299 27.6687 26.8749 27.2679 27.2763C26.8671 27.6771 26.8221 28.2819 27.1671 28.6275ZM46.3953 33.6099C46.3953 33.6099 50.9673 27.5883 51.3369 27.2193C51.7059 26.8497 52.3305 26.8755 52.7313 27.2769C53.1321 27.6777 53.1579 28.3023 52.7877 28.6713C52.4193 29.0397 46.3953 33.6099 46.3953 33.6099ZM28.6191 52.8255C28.9647 52.4811 33.1905 46.8051 33.1905 46.8051C33.1905 46.8051 27.5127 51.0285 27.1671 51.3735C26.8221 51.7185 26.8671 52.3233 27.2679 52.7247C27.6687 53.1255 28.2741 53.1711 28.6191 52.8255ZM49.0408 39.9969C49.0408 39.9969 56.5312 38.9685 57.0538 38.9685C57.5764 38.9679 58 39.4281 58 39.9945C58.0006 40.5615 57.5776 41.0217 57.055 41.0217C56.5324 41.0223 49.0408 39.9969 49.0408 39.9969ZM22.8844 41.0325C23.3716 41.0319 30.3736 40.0041 30.3736 40.0041C30.3736 40.0041 23.3716 38.9787 22.8844 38.9787C22.3954 38.9787 22 39.4389 22 40.0059C22 40.5723 22.3954 41.0325 22.8844 41.0325ZM33.2369 24.9621C33.8466 24.9621 34.3409 24.4678 34.3409 23.8581C34.3409 23.2484 33.8466 22.7541 33.2369 22.7541C32.6271 22.7541 32.1329 23.2484 32.1329 23.8581C32.1329 24.4678 32.6271 24.9621 33.2369 24.9621ZM48.0303 23.8581C48.0303 24.4678 47.536 24.9621 46.9263 24.9621C46.3166 24.9621 45.8223 24.4678 45.8223 23.8581C45.8223 23.2484 46.3166 22.7541 46.9263 22.7541C47.536 22.7541 48.0303 23.2484 48.0303 23.8581ZM32.9253 57.3201C33.5354 57.3201 34.0299 56.8256 34.0299 56.2155C34.0299 55.6054 33.5354 55.1109 32.9253 55.1109C32.3153 55.1109 31.8207 55.6054 31.8207 56.2155C31.8207 56.8256 32.3153 57.3201 32.9253 57.3201ZM47.7196 56.2155C47.7196 56.8256 47.225 57.3201 46.615 57.3201C46.0049 57.3201 45.5104 56.8256 45.5104 56.2155C45.5104 55.6054 46.0049 55.1109 46.615 55.1109C47.225 55.1109 47.7196 55.6054 47.7196 56.2155ZM23.7472 47.8299C24.3569 47.8299 24.8512 47.3356 24.8512 46.7259C24.8512 46.1162 24.3569 45.6219 23.7472 45.6219C23.1375 45.6219 22.6432 46.1162 22.6432 46.7259C22.6432 47.3356 23.1375 47.8299 23.7472 47.8299ZM24.8512 33.0363C24.8512 33.646 24.3569 34.1403 23.7472 34.1403C23.1375 34.1403 22.6432 33.646 22.6432 33.0363C22.6432 32.4266 23.1375 31.9323 23.7472 31.9323C24.3569 31.9323 24.8512 32.4266 24.8512 33.0363ZM56.1046 48.1419C56.7147 48.1419 57.2092 47.6474 57.2092 47.0373C57.2092 46.4273 56.7147 45.9327 56.1046 45.9327C55.4945 45.9327 55 46.4273 55 47.0373C55 47.6474 55.4945 48.1419 56.1046 48.1419ZM57.2087 33.3477C57.2087 33.9574 56.7144 34.4517 56.1047 34.4517C55.495 34.4517 55.0007 33.9574 55.0007 33.3477C55.0007 32.7379 55.495 32.2437 56.1047 32.2437C56.7144 32.2437 57.2087 32.7379 57.2087 33.3477Z" fill="white"/>
</svg>
