<svg width="80" height="80" viewBox="0 0 80 80" fill="none" xmlns="http://www.w3.org/2000/svg">
<rect width="80" height="80" rx="10" fill="#F7941E"/>
<path d="M41.3132 55.0635C41.3132 55.7223 41.3907 56.3617 41.4876 57.0011H23.8751C22.8474 57.0011 21.8617 56.5928 21.135 55.8661C20.4083 55.1393 20 54.1537 20 53.1259V29.8751C20 28.8474 20.4083 27.8617 21.135 27.135C21.8617 26.4083 22.8474 26 23.8751 26H25.8127L29.6878 33.7503H35.5005L31.6254 26H35.5005L39.3757 33.7503H45.1884L41.3132 26H45.1884L49.0635 33.7503H54.8762L51.0011 26H58.7513V45.0075C57.0463 44.0194 55.07 43.4381 52.9386 43.4381C46.5253 43.4381 41.3132 48.6502 41.3132 55.0635ZM60.6889 52.9128L55.0893 52.4284L52.9386 47.3132L50.7492 52.4284L45.1884 52.9128L49.4123 56.5554L48.0947 62L52.9386 59.113L57.6857 62L56.4263 56.5554L60.6889 52.9128Z" fill="white"/>
</svg>
