<svg width="64" height="64" viewBox="0 0 64 64" fill="none" xmlns="http://www.w3.org/2000/svg">
<rect width="64" height="64" rx="12" fill="#F7941E"/>
<path d="M21.3612 35.4667H12.8056C11.6292 35.4667 10.6667 34.5067 10.6667 33.3334C10.6667 32.1601 11.6292 31.2001 12.8056 31.2001H21.3612C22.5376 31.2001 23.5001 32.1601 23.5001 33.3334C23.5001 34.5067 22.5376 35.4667 21.3612 35.4667ZM19.2223 24.8001C19.2223 23.6267 18.2598 22.6667 17.0834 22.6667H14.9445C13.7681 22.6667 12.8056 23.6267 12.8056 24.8001C12.8056 25.9734 13.7681 26.9334 14.9445 26.9334H17.0834C18.2598 26.9334 19.2223 25.9734 19.2223 24.8001ZM53.4445 33.3334C53.4445 39.2214 48.6534 44.0001 42.7501 44.0001H14.9445C13.7681 44.0001 12.8056 43.0401 12.8056 41.8667C12.8056 40.6934 13.7681 39.7334 14.9445 39.7334H34.1945C33.2962 38.4961 32.5904 37.0454 32.2695 35.4667H27.7779C26.6015 35.4667 25.639 34.5067 25.639 33.3334C25.639 32.1601 26.6015 31.2001 27.7779 31.2001H32.2695C32.5904 29.6214 33.2962 28.1707 34.1945 26.9334H23.5001C22.3237 26.9334 21.3612 25.9734 21.3612 24.8001C21.3612 23.6267 22.3237 22.6667 23.5001 22.6667H42.7501C48.6534 22.6667 53.4445 27.4454 53.4445 33.3334Z" fill="white"/>
</svg>
