<svg width="80" height="80" viewBox="0 0 80 80" fill="none" xmlns="http://www.w3.org/2000/svg">
<rect width="80" height="80" rx="10" fill="#F7941E"/>
<path d="M59.7143 25H21.1429C20.5745 25 20.0295 25.2258 19.6276 25.6276C19.2258 26.0295 19 26.5745 19 27.1429V35.7143H20.9136C23.0479 35.7143 25.0279 37.1736 25.3707 39.28C25.4752 39.8951 25.4441 40.5255 25.2798 41.1274C25.1154 41.7292 24.8217 42.288 24.4192 42.7646C24.0166 43.2412 23.5149 43.6243 22.949 43.887C22.3831 44.1497 21.7667 44.2858 21.1429 44.2857H19V52.8571C19 53.4255 19.2258 53.9705 19.6276 54.3724C20.0295 54.7742 20.5745 55 21.1429 55H59.7143C60.2826 55 60.8277 54.7742 61.2295 54.3724C61.6314 53.9705 61.8571 53.4255 61.8571 52.8571V44.2857H59.7143C59.0904 44.2858 58.474 44.1497 57.9081 43.887C57.3423 43.6243 56.8405 43.2412 56.438 42.7646C56.0354 42.288 55.7417 41.7292 55.5774 41.1274C55.413 40.5255 55.382 39.8951 55.4864 39.28C55.8293 37.1736 57.8093 35.7143 59.9436 35.7143H61.8571V27.1429C61.8571 26.5745 61.6314 26.0295 61.2295 25.6276C60.8277 25.2258 60.2826 25 59.7143 25ZM34 33.5714C34.5683 33.5714 35.1134 33.7972 35.5152 34.1991C35.9171 34.6009 36.1429 35.146 36.1429 35.7143C36.1429 36.2826 35.9171 36.8277 35.5152 37.2295C35.1134 37.6314 34.5683 37.8571 34 37.8571C33.4317 37.8571 32.8866 37.6314 32.4848 37.2295C32.0829 36.8277 31.8571 36.2826 31.8571 35.7143C31.8571 35.146 32.0829 34.6009 32.4848 34.1991C32.8866 33.7972 33.4317 33.5714 34 33.5714ZM32.2857 47.2857L45.1429 30.1429L48.5714 32.7143L35.7143 49.8571L32.2857 47.2857ZM46.8571 46.4286C46.2888 46.4286 45.7438 46.2028 45.3419 45.8009C44.9401 45.3991 44.7143 44.854 44.7143 44.2857C44.7143 43.7174 44.9401 43.1723 45.3419 42.7705C45.7438 42.3686 46.2888 42.1429 46.8571 42.1429C47.4255 42.1429 47.9705 42.3686 48.3724 42.7705C48.7742 43.1723 49 43.7174 49 44.2857C49 44.854 48.7742 45.3991 48.3724 45.8009C47.9705 46.2028 47.4255 46.4286 46.8571 46.4286Z" fill="white"/>
</svg>
