<svg width="80" height="80" viewBox="0 0 80 80" fill="none" xmlns="http://www.w3.org/2000/svg">
<rect width="80" height="80" rx="10" fill="#F7941E"/>
<path d="M28.4286 22C26.5257 22 25 23.5257 25 25.4286V52.8571C25 53.7665 25.3612 54.6385 26.0042 55.2815C26.6472 55.9245 27.5193 56.2857 28.4286 56.2857H35.2857V53.0114L38.8686 49.4286H28.4286V46H42.2971L45.7257 42.5714H28.4286V39.1429H49.1543L52.4286 35.8686V32.2857L42.1429 22H28.4286ZM40.4286 24.5714L49.8571 34H40.4286V24.5714ZM52.6857 40.8571C52.5588 40.8544 52.4327 40.8772 52.3149 40.9244C52.1971 40.9715 52.09 41.0419 52 41.1314L50.2514 42.88L53.8343 46.4457L55.5829 44.7143C55.9429 44.3371 55.9429 43.72 55.5829 43.36L53.3543 41.1314C53.2667 41.0435 53.1625 40.974 53.0476 40.9269C52.9328 40.8798 52.8098 40.8561 52.6857 40.8571ZM49.24 43.8914L38.7143 54.4343V58H42.28L52.8229 47.4571L49.24 43.8914Z" fill="white"/>
</svg>
