<svg width="80" height="80" viewBox="0 0 80 80" fill="none" xmlns="http://www.w3.org/2000/svg">
<rect width="80" height="80" rx="10" fill="#F7941E"/>
<path d="M55.3684 19L54.5726 20.7792L52.8421 21.5879L54.5726 22.4031L55.3684 24.1759L56.1579 22.4031L57.8947 21.5879L56.1579 20.7792L55.3684 19ZM49.0526 20.9409L47.4737 24.4994L44 26.1168L47.4737 27.7343L49.0526 31.2927L50.6316 27.7343L54.1053 26.1168L50.6316 24.4994L49.0526 20.9409Z" fill="white"/>
<path fill-rule="evenodd" clip-rule="evenodd" d="M45.1844 35.3111C45.2101 35.3375 45.2352 35.3633 45.2596 35.3883L52.0276 42.3398C52.1942 42.5105 52.3264 42.7132 52.4166 42.9362C52.5068 43.1593 52.5532 43.3984 52.5532 43.6398C52.5532 43.8812 52.5068 44.1203 52.4166 44.3433C52.3264 44.5664 52.1942 44.769 52.0276 44.9397C51.8609 45.1104 51.6631 45.2459 51.4454 45.3382C51.2276 45.4306 50.9943 45.4782 50.7586 45.4782C50.5229 45.4782 50.2896 45.4306 50.0718 45.3382C49.8541 45.2459 49.6562 45.1104 49.4896 44.9397L43.6576 38.9655V59.1562C43.6576 60.1704 42.8476 61.0001 41.8576 61.0001C40.8676 61.0001 40.0576 60.1704 40.0576 59.1562V49.9367H36.4576V59.1562C36.4576 60.1704 35.6476 61.0001 34.6576 61.0001C33.6676 61.0001 32.8576 60.1704 32.8576 59.1562V36.4947C30.5962 35.797 28.5703 34.4655 27.0086 32.6507C25.4469 30.8358 24.4116 28.6099 24.0196 26.2241C23.8576 25.1178 24.7216 24.1221 25.8196 24.1221C26.2477 24.1251 26.6607 24.2847 26.9841 24.5721C27.3075 24.8594 27.5201 25.2557 27.5836 25.6894C27.9515 27.8252 29.0395 29.7611 30.6579 31.1595C32.2763 32.5579 34.3224 33.3301 36.4396 33.3416H41.0116C43.2701 33.3416 44.4723 34.5784 45.1844 35.3111ZM41.8576 27.8099C41.8576 29.8466 40.2458 31.4977 38.2576 31.4977C36.2694 31.4977 34.6576 29.8466 34.6576 27.8099C34.6576 25.7732 36.2694 24.1221 38.2576 24.1221C40.2458 24.1221 41.8576 25.7732 41.8576 27.8099Z" fill="white"/>
</svg>
