<svg width="80" height="80" viewBox="0 0 80 80" fill="none" xmlns="http://www.w3.org/2000/svg">
<rect width="80" height="80" rx="10" fill="#F7941E"/>
<path d="M56.02 48.76C53.56 48.76 51.18 48.36 48.96 47.64C48.6122 47.5221 48.2382 47.5046 47.881 47.5895C47.5237 47.6744 47.1976 47.8583 46.94 48.12L43.8 52.06C38.14 49.36 32.84 44.26 30.02 38.4L33.92 35.08C34.46 34.52 34.62 33.74 34.4 33.04C33.66 30.82 33.28 28.44 33.28 25.98C33.28 24.9 32.38 24 31.3 24H24.38C23.3 24 22 24.48 22 25.98C22 44.56 37.46 60 56.02 60C57.44 60 58 58.74 58 57.64V50.74C58 49.66 57.1 48.76 56.02 48.76Z" fill="white"/>
<path d="M43.5253 24.0008H55.3101C55.9799 24.0008 56.6222 24.2669 57.0958 24.7405C57.5694 25.2141 57.8355 25.8564 57.8355 26.5262V33.2603C57.8355 33.9301 57.5694 34.5724 57.0958 35.046C56.6222 35.5196 55.9799 35.7857 55.3101 35.7857H49.4531L44.0287 39.8329C43.9035 39.9263 43.7547 39.9831 43.599 39.9968C43.4434 40.0104 43.287 39.9805 43.1474 39.9104C43.0077 39.8402 42.8904 39.7326 42.8085 39.5995C42.7266 39.4665 42.6833 39.3132 42.6835 39.157V35.7848C42.237 35.7848 41.8088 35.6074 41.4931 35.2917C41.1774 34.976 41 34.5478 41 34.1013V26.5253C41 25.8556 41.2661 25.2132 41.7396 24.7396C42.2132 24.2661 42.8556 24 43.5253 24V24.0008Z" fill="white"/>
<circle cx="46" cy="30" r="2" fill="#F7941E"/>
<circle cx="53" cy="30" r="2" fill="#F7941E"/>
</svg>
