<svg width="80" height="80" viewBox="0 0 80 80" fill="none" xmlns="http://www.w3.org/2000/svg">
<rect y="0.000488281" width="80" height="80" rx="10" fill="#F7941E"/>
<path d="M23.0011 45.7225C23.0011 48.0571 24.1907 50.2127 26.2202 51.3729L29.7977 53.4535V45.467L23.0008 41.5099V45.7225H23.0011ZM29.8164 26.5447L26.2273 28.6281C24.1979 29.7883 23 31.9439 23 34.2785V38.3275L29.7968 42.284V34.4633L36.7259 30.5082L29.8166 26.5447H29.8164ZM32.7101 47.0503V55.0368L36.3255 57.1392C38.3351 58.2876 40.7109 58.2876 42.7207 57.1392L46.3045 55.0368V47.1636L39.6069 51.0634L32.7101 47.0503ZM49.218 53.4537L52.7955 51.3731C54.8247 50.2121 56.0146 48.0565 56.0146 45.7227V41.6233L49.2178 45.5805V53.4537H49.218ZM46.4315 24.9661L42.7511 22.8618C41.7631 22.2974 40.6449 22.0005 39.5071 22.0005C38.3692 22.0005 37.2511 22.2974 36.2631 22.8618L32.6037 24.9534L39.5183 28.9169L46.4313 24.9661H46.4315ZM52.7837 28.6281L49.1944 26.5582L42.3094 30.512L49.2161 34.4656V42.3973L56.0129 38.4409V34.2785C56.0137 31.9439 54.8131 29.7883 52.7835 28.6281H52.7837ZM32.7101 36.0649V43.866L39.6058 47.8802L46.3037 43.9795V36.0641L39.5168 32.1023L32.7101 36.0649Z" fill="white"/>
</svg>
