<svg width="64" height="64" viewBox="0 0 64 64" fill="none" xmlns="http://www.w3.org/2000/svg">
<rect width="64" height="64" rx="12" fill="#F7941E"/>
<path fill-rule="evenodd" clip-rule="evenodd" d="M39.022 14.2113C38.9871 14.1311 38.8733 14.1311 38.8385 14.2113L37.9324 16.2991C37.9223 16.3223 37.9038 16.3409 37.8805 16.351L35.7928 17.257C35.7125 17.2919 35.7125 17.4057 35.7928 17.4405L37.8805 18.3466C37.9038 18.3567 37.9223 18.3752 37.9324 18.3985L38.8385 20.4862C38.8733 20.5665 38.9871 20.5665 39.022 20.4863L39.928 18.3985C39.9381 18.3752 39.9567 18.3567 39.9799 18.3466L42.0677 17.4405C42.1479 17.4057 42.1479 17.2919 42.0677 17.257L39.9799 16.351C39.9567 16.3409 39.9381 16.3223 39.928 16.2991L39.022 14.2113ZM48.5129 14.5833C48.5478 14.503 48.6616 14.503 48.6964 14.5833L50.5034 18.7469C50.5135 18.7702 50.532 18.7887 50.5553 18.7988L54.7189 20.6058C54.7991 20.6406 54.7991 20.7544 54.7189 20.7892L50.5553 22.5962C50.532 22.6063 50.5135 22.6248 50.5034 22.6481L48.6964 26.8117C48.6616 26.892 48.5478 26.892 48.5129 26.8117L46.706 22.6481C46.6959 22.6248 46.6773 22.6063 46.6541 22.5962L42.4905 20.7892C42.4102 20.7544 42.4102 20.6406 42.4905 20.6058L46.6541 18.7988C46.6773 18.7887 46.6959 18.7702 46.706 18.7469L48.5129 14.5833ZM49.6183 33.6102C49.5661 33.4926 48.3057 30.6965 45.5025 27.8933C41.7691 24.1594 37.0515 22.1857 31.8605 22.1857C26.6695 22.1857 21.952 24.1593 18.2185 27.8932C15.4153 30.6965 14.1548 33.4927 14.1026 33.6103C14.0349 33.7626 14 33.9273 14 34.0939C14 34.2605 14.0349 34.4252 14.1026 34.5775C14.155 34.695 15.4153 37.4905 18.2187 40.2934C21.9521 44.0264 26.6694 45.9997 31.8605 45.9997C37.0517 45.9997 41.769 44.0264 45.5024 40.2934C48.3056 37.4905 49.5661 34.6952 49.6185 34.5775C49.6861 34.4252 49.7211 34.2605 49.7211 34.0939C49.7211 33.9273 49.6861 33.7626 49.6185 33.6103L49.6183 33.6102ZM31.8605 28.7357C32.9203 28.7357 33.9562 29.05 34.8374 29.6388C35.7185 30.2275 36.4053 31.0643 36.8108 32.0434C37.2164 33.0225 37.3225 34.0998 37.1157 35.1392C36.909 36.1786 36.3987 37.1333 35.6493 37.8827C34.9 38.632 33.9452 39.1423 32.9059 39.3491C31.8665 39.5558 30.7891 39.4497 29.8101 39.0442C28.831 38.6386 27.9942 37.9519 27.4054 37.0707C26.8166 36.1896 26.5024 35.1536 26.5024 34.0939C26.504 32.6733 27.069 31.3114 28.0735 30.3069C29.078 29.3023 30.4399 28.7373 31.8605 28.7357Z" fill="white"/>
</svg>
