<svg width="80" height="80" viewBox="0 0 80 80" fill="none" xmlns="http://www.w3.org/2000/svg">
<path fill-rule="evenodd" clip-rule="evenodd" d="M12 0C5.37258 0 0 5.37258 0 12V68C0 74.6274 5.37258 80 12 80H68C74.6274 80 80 74.6274 80 68V12C80 5.37258 74.6274 0 68 0H12ZM18.6153 60H61.6923C62.5577 60 63.2868 59.7247 63.8798 59.1741C64.4727 58.6235 64.7692 57.9464 64.7692 57.1429V28.5714C64.7692 27.7679 64.4727 27.0908 63.8798 26.5402C63.2868 25.9896 62.5577 25.7143 61.6923 25.7143H58.6154V28.5714C58.6154 30.506 58.0464 31.942 56.9086 32.8795C55.7708 33.817 54.2884 34.2857 52.4615 34.2857C50.6346 34.2857 49.1522 33.817 48.0144 32.8795C46.8766 31.942 46.3077 30.506 46.3077 28.5714V25.7143H34V28.5714C34 30.4167 33.423 31.8304 32.2692 32.8125C31.1154 33.7946 29.641 34.2857 27.8461 34.2857C26.0192 34.2857 24.5368 33.817 23.399 32.8795C22.2612 31.942 21.6923 30.506 21.6923 28.5714V25.7143H18.6153C17.75 25.7143 17.0208 25.9896 16.4278 26.5402C15.8349 27.0908 15.5384 27.7679 15.5384 28.5714V57.1429C15.5384 57.9167 15.8429 58.5863 16.4519 59.1518C17.0609 59.7173 17.782 60 18.6153 60ZM34 49.3304V51.6964C35.7948 52.0238 37.2612 52.5744 38.399 53.3482C39.5368 54.122 40.1218 54.9851 40.1538 55.9375C40.1538 56.7411 37.0769 57.1429 30.923 57.1429C24.7692 57.1429 21.6923 56.7411 21.6923 55.9375C21.7243 54.9851 22.3093 54.122 23.4471 53.3482C24.5849 52.5744 26.0512 52.0238 27.8461 51.6964V49.2411C25.7948 48.0208 24.7692 45.5506 24.7692 41.8304C24.7692 40.2827 25.3461 39.1146 26.5 38.3259C27.6538 37.5372 29.1282 37.1429 30.923 37.1429C32.7179 37.1429 34.1923 37.5372 35.3461 38.3259C36.5 39.1146 37.0769 40.2827 37.0769 41.8304C37.0769 45.7292 36.0512 48.2292 34 49.3304ZM47.8461 40H60.1538C60.5705 40 60.9311 40.1414 61.2355 40.4241C61.54 40.7068 61.6923 41.0417 61.6923 41.4286C61.6923 41.8155 61.54 42.1503 61.2355 42.433C60.9311 42.7158 60.5705 42.8571 60.1538 42.8571H47.8461C47.4295 42.8571 47.0689 42.7158 46.7644 42.433C46.4599 42.1503 46.3077 41.8155 46.3077 41.4286C46.3077 41.0417 46.4599 40.7068 46.7644 40.4241C47.0689 40.1414 47.4295 40 47.8461 40ZM46.7644 48.1473C46.4599 47.8646 46.3077 47.5298 46.3077 47.1429C46.3077 46.756 46.4599 46.4211 46.7644 46.1384C47.0689 45.8557 47.4295 45.7143 47.8461 45.7143H54C54.4166 45.7143 54.7772 45.8557 55.0817 46.1384C55.3862 46.4211 55.5384 46.756 55.5384 47.1429C55.5384 47.5298 55.3862 47.8646 55.0817 48.1473C54.7772 48.4301 54.4166 48.5714 54 48.5714H47.8461C47.4295 48.5714 47.0689 48.4301 46.7644 48.1473ZM46.7644 51.8527C47.0689 51.5699 47.4295 51.4286 47.8461 51.4286H60.1538C60.5705 51.4286 60.9311 51.5699 61.2355 51.8527C61.54 52.1354 61.6923 52.4702 61.6923 52.8571C61.6923 53.244 61.54 53.5789 61.2355 53.8616C60.9311 54.1443 60.5705 54.2857 60.1538 54.2857H47.8461C47.4295 54.2857 47.0689 54.1443 46.7644 53.8616C46.4599 53.5789 46.3077 53.244 46.3077 52.8571C46.3077 52.4702 46.4599 52.1354 46.7644 51.8527ZM50.298 30.5804C50.907 31.1458 51.6282 31.4286 52.4615 31.4286C53.3269 31.4286 54.0561 31.1533 54.649 30.6027C55.242 30.0521 55.5384 29.375 55.5384 28.5714V22.8571C55.5384 22.0536 55.242 21.3765 54.649 20.8259C54.0561 20.2753 53.3269 20 52.4615 20C51.5961 20 50.867 20.2753 50.274 20.8259C49.6811 21.3765 49.3846 22.0536 49.3846 22.8571V28.5714C49.3846 29.3452 49.6891 30.0149 50.298 30.5804ZM25.6827 30.5804C26.2916 31.1458 27.0128 31.4286 27.8461 31.4286C28.7115 31.4286 29.4407 31.1533 30.0336 30.6027C30.6266 30.0521 30.923 29.375 30.923 28.5714V22.8571C30.923 22.0536 30.6266 21.3765 30.0336 20.8259C29.4407 20.2753 28.7115 20 27.8461 20C26.9807 20 26.2516 20.2753 25.6586 20.8259C25.0657 21.3765 24.7692 22.0536 24.7692 22.8571V28.5714C24.7692 29.3452 25.0737 30.0149 25.6827 30.5804Z" fill="#F7941E"/>
</svg>
