<svg width="64" height="64" viewBox="0 0 64 64" fill="none" xmlns="http://www.w3.org/2000/svg">
<rect width="64" height="64" rx="12" fill="#F7941E"/>
<path d="M37.9999 20C37.9999 16.6862 35.3137 14 32 14C28.6862 14 26 16.6862 26 20C26 23.3137 28.6862 26 32 26C35.3137 26 37.9999 23.3137 37.9999 20ZM30.5993 29.0687C26.8912 26.7987 20.885 26.175 17.8625 26.0031C16.8469 25.9456 16 26.7193 16 27.6962V41.6212C16 42.5168 16.7244 43.2637 17.6556 43.3118C20.3844 43.4549 25.905 43.9793 29.7206 45.9012C30.3062 46.1962 31.0006 45.7943 31.0006 45.1593V29.785C31 29.4931 30.8556 29.2256 30.5993 29.0687ZM46.1374 26.0031C43.1156 26.1743 37.1087 26.7987 33.4012 29.0687C33.145 29.2256 33.0006 29.5037 33.0006 29.7956V45.1574C33.0006 45.7943 33.6968 46.1968 34.2843 45.9012C38.0993 43.9812 43.6168 43.4568 46.3449 43.3137C47.2762 43.2649 48.0005 42.518 48.0005 41.6224V27.6962C47.9999 26.7193 47.153 25.9456 46.1374 26.0031Z" fill="white"/>
</svg>
