<svg width="80" height="80" viewBox="0 0 80 80" fill="none" xmlns="http://www.w3.org/2000/svg">
<rect width="80" height="80" rx="10" fill="#F7941E"/>
<path d="M58.002 39.0012H54.9688C54.4762 31.5029 48.4891 25.5084 40.9978 25.0153V21.979C40.9926 21.7176 40.8851 21.4686 40.6986 21.2856C40.512 21.1025 40.2612 21 40 21C39.7388 21 39.488 21.1025 39.3014 21.2856C39.1149 21.4686 39.0074 21.7176 39.0022 21.979V25.0153C31.5105 25.5084 25.5238 31.5025 25.0312 39.0012H21.998C21.7333 39.0012 21.4795 39.1064 21.2923 39.2938C21.1051 39.4811 21 39.7352 21 40.0002C21 40.2652 21.1051 40.5193 21.2923 40.7066C21.4795 40.894 21.7333 40.9992 21.998 40.9992H25.0308C25.5226 48.4987 31.5097 54.492 39.0022 54.9847V58.021C39.0074 58.2824 39.1149 58.5314 39.3014 58.7144C39.488 58.8975 39.7388 59 40 59C40.2612 59 40.512 58.8975 40.6986 58.7144C40.8851 58.5314 40.9926 58.2824 40.9978 58.021V54.9847C48.4899 54.492 54.477 48.4983 54.9692 40.9992H58.002C58.2667 40.9992 58.5205 40.894 58.7077 40.7066C58.8949 40.5193 59 40.2652 59 40.0002C59 39.7352 58.8949 39.4811 58.7077 39.2938C58.5205 39.1064 58.2667 39.0012 58.002 39.0012ZM39.0018 50.993C33.715 50.5159 29.4945 46.2907 29.0183 40.9992H31.0151C31.4761 45.1988 34.8066 48.5327 39.0018 48.9942V50.993ZM39.0018 31.0062C34.8066 31.4677 31.4761 34.8016 31.0151 39.0012H29.0183C29.4953 33.7105 33.7154 29.4849 39.0014 29.0074V31.0062H39.0018ZM40.9978 29.0078C46.2838 29.4849 50.5039 33.7105 50.9809 39.0012H48.9845C48.5235 34.8012 45.193 31.4673 40.9978 31.0062V29.0078ZM40.9978 50.993V48.9946C45.193 48.5331 48.5235 45.1992 48.9845 40.9996H50.9809C50.5047 46.2907 46.2842 50.5155 40.9978 50.993Z" fill="white"/>
</svg>
