<svg width="64" height="64" viewBox="0 0 64 64" fill="none" xmlns="http://www.w3.org/2000/svg">
<path fill-rule="evenodd" clip-rule="evenodd" d="M12 0C5.37258 0 0 5.37258 0 12V52C0 58.6274 5.37258 64 12 64H52C58.6274 64 64 58.6274 64 52V12C64 5.37258 58.6274 0 52 0H12ZM50 35.2776L47.6 32.8604L38.8057 41.7233L35.2571 38.1576L32.8571 40.5747L38.8057 46.5747L50 35.2776ZM33.7143 45.7176L28.5714 40.5747L33.5257 35.6204L30.2857 35.4318C22.7086 35.4318 16.5714 38.5004 16.5714 42.289V45.7176H33.7143ZM35.1344 20.2974C33.8485 19.0114 32.1043 18.289 30.2857 18.289C28.4671 18.289 26.7229 19.0114 25.437 20.2974C24.151 21.5834 23.4286 23.3275 23.4286 25.1461C23.4286 26.9648 24.151 28.7089 25.437 29.9949C26.7229 31.2808 28.4671 32.0033 30.2857 32.0033C32.1043 32.0033 33.8485 31.2808 35.1344 29.9949C36.4204 28.7089 37.1429 26.9648 37.1429 25.1461C37.1429 23.3275 36.4204 21.5834 35.1344 20.2974Z" fill="#F7941E"/>
</svg>
