<svg width="64" height="64" viewBox="0 0 64 64" fill="none" xmlns="http://www.w3.org/2000/svg">
<path fill-rule="evenodd" clip-rule="evenodd" d="M12 0C5.37258 0 0 5.37258 0 12V52C0 58.6274 5.37258 64 12 64H52C58.6274 64 64 58.6274 64 52V12C64 5.37258 58.6274 0 52 0H12ZM44 16.5714C45.8857 16.5714 47.4286 18.1143 47.4286 20V25.1429H28.5714V16.5714H44ZM20 47.4286C18.1143 47.4286 16.5714 45.8857 16.5714 44V28.5714H25.1429V47.4286H20ZM16.5714 25.1429V20C16.5714 18.1143 18.1143 16.5714 20 16.5714H25.1429V25.1429H16.5714ZM36.9029 32.24L41.6857 27.4571C42.0114 27.1314 42.56 27.1314 42.8857 27.4743L47.6686 32.2571C48.2171 32.7886 47.84 33.7143 47.0686 33.7143H44V37.1429C44 40.9314 40.9314 44 37.1429 44H33.7143V47.0857C33.7119 47.2535 33.6604 47.4169 33.5661 47.5556C33.4717 47.6944 33.3387 47.8024 33.1836 47.8663C33.0284 47.9301 32.858 47.9471 32.6933 47.915C32.5286 47.8829 32.3769 47.8032 32.2571 47.6857L27.4743 42.9029C27.1314 42.56 27.1314 42.0286 27.4743 41.6857L32.2571 36.9029C32.7886 36.3543 33.7143 36.7314 33.7143 37.5029V40.5714H37.1429C39.0286 40.5714 40.5714 39.0286 40.5714 37.1429V33.7143H37.5029C36.7314 33.7143 36.3543 32.7886 36.9029 32.24Z" fill="#F7941E"/>
</svg>
