<svg width="64" height="64" viewBox="0 0 64 64" fill="none" xmlns="http://www.w3.org/2000/svg">
<path fill-rule="evenodd" clip-rule="evenodd" d="M12 0C5.37258 0 0 5.37258 0 12V52C0 58.6274 5.37258 64 12 64H52C58.6274 64 64 58.6274 64 52V12C64 5.37258 58.6274 0 52 0H12ZM40.5706 16.5714H33.7135V20H40.5706V16.5714ZM23.4277 25.1429H16.5706V28.5714H23.4277V25.1429ZM23.4277 38.8571H16.5706V42.2857H23.4277V38.8571ZM21.6963 32H14.8563V35.4286H21.6963V32ZM46.2157 20.5023L48.6397 22.9263L45.962 25.6057C48.0048 27.812 49.1403 30.7075 49.142 33.7143C49.142 40.3297 43.7575 45.7143 37.142 45.7143C30.5266 45.7143 25.142 40.3297 25.142 33.7143C25.142 27.0989 30.5266 21.7143 37.142 21.7143C39.3091 21.7149 41.4348 22.3077 43.2895 23.4286L46.2157 20.5023ZM35.4277 26.7851V35.4286H38.8563V26.7851H35.4277Z" fill="#F7941E"/>
</svg>
