<svg width="64" height="64" viewBox="0 0 64 64" fill="none" xmlns="http://www.w3.org/2000/svg">
<rect width="64" height="64" rx="12" fill="#F7941E"/>
<path d="M46.7954 19.3333H39.8024C38.8458 19.3333 38.0475 20.1117 38.0475 21.0683V23.6808H25.8228V21.0683C25.8228 20.1117 25.0312 19.3333 24.068 19.3333H17.0749C16.1117 19.3333 15.3333 20.1117 15.3333 21.0683V42.9315C15.3333 43.8881 16.1117 44.6666 17.0881 44.6666H46.802C47.7784 44.6666 48.5569 43.8881 48.5569 42.9315V21.0683C48.5437 20.1117 47.7652 19.3333 46.7954 19.3333ZM24.9322 38.5839C22.5176 38.5839 20.5517 36.6246 20.5517 34.2034C20.5517 31.769 22.511 29.8096 24.9322 29.8096C27.3666 29.8096 29.326 31.769 29.326 34.2034C29.326 36.6246 27.3666 38.5839 24.9322 38.5839ZM38.9447 38.5839C36.5103 38.5839 34.551 36.6246 34.551 34.1902C34.551 31.7756 36.5103 29.8096 38.9447 29.8096C41.3593 29.8096 43.3253 31.769 43.3253 34.1902C43.3253 36.6246 41.3593 38.5839 38.9447 38.5839Z" fill="white"/>
</svg>
