<svg width="80" height="80" viewBox="0 0 80 80" fill="none" xmlns="http://www.w3.org/2000/svg">
<rect width="80" height="80" rx="10" fill="#F7941E"/>
<path fill-rule="evenodd" clip-rule="evenodd" d="M40.9342 22.0158C40.8507 22.1274 40.752 22.2268 40.641 22.311L32.7633 28.28C32.5632 28.4311 32.3951 28.6204 32.2685 28.8368C32.1419 29.0532 32.0595 29.2926 32.0259 29.541C31.9924 29.7895 32.0084 30.0422 32.073 30.2844C32.1376 30.5267 32.2495 30.7537 32.4023 30.9525C32.5559 31.1546 32.7478 31.3245 32.9671 31.4524C33.1864 31.5803 33.4288 31.6636 33.6804 31.6977C33.9319 31.7318 34.1878 31.7159 34.4332 31.651C34.6786 31.5861 34.9088 31.4734 35.1107 31.3194L38.868 28.4715C39.1289 28.2762 39.4456 28.1699 39.7715 28.1684H49.2347C49.628 28.1682 50.0056 28.3229 50.2857 28.5991L56.8292 35.0549C57.2144 33.5804 57.2705 32.0391 56.9934 30.5405C56.7163 29.0419 56.1128 27.6227 55.2257 26.3834C54.0539 24.7467 52.4329 23.4846 50.5589 22.7497C49.5332 22.2627 48.4116 22.0113 47.2762 22.0138H47.2004C46.8384 21.9954 46.4756 21.9954 46.1135 22.0138L46.0437 22.0158H40.9342ZM30.7681 44.4226L30.794 44.3967C31.1199 44.0605 31.3002 43.6095 31.2957 43.1413C31.2912 42.6731 31.1023 42.2256 30.7701 41.8957C30.4317 41.5607 29.9748 41.3727 29.4987 41.3727C29.0225 41.3727 28.5656 41.5607 28.2273 41.8957L26.2848 43.8263C26.1179 43.9917 25.9855 44.1885 25.8951 44.4053C25.8047 44.6222 25.7582 44.8548 25.7582 45.0897C25.7582 45.3246 25.8047 45.5572 25.8951 45.7741C25.9855 45.9909 26.1179 46.1877 26.2848 46.3531C26.6187 46.683 27.0679 46.87 27.5373 46.8744C28.0067 46.8789 28.4595 46.7005 28.7996 46.377L28.8256 46.3531L30.7681 44.4226ZM30.2163 47.7829C29.8906 48.1193 29.7107 48.5705 29.7155 49.0387C29.7204 49.5069 29.9096 49.9543 30.2422 50.2838C30.9442 50.9819 32.081 50.9819 32.785 50.2838L34.7275 48.3553C34.9162 48.1686 35.0606 47.942 35.1504 47.6922C35.2401 47.4423 35.2727 47.1756 35.246 46.9115C35.2192 46.6474 35.1337 46.3926 34.9956 46.1659C34.8576 45.9391 34.6706 45.7462 34.4483 45.6011C34.1075 45.3769 33.701 45.2746 33.2947 45.3108C32.8884 45.347 32.5063 45.5196 32.2106 45.8005L32.1847 45.8285L30.2422 47.757L30.2163 47.7829ZM26.4015 39.3349C26.3112 39.118 26.1787 38.9212 26.0119 38.7558H26.0139C25.6755 38.4208 25.2186 38.2328 24.7425 38.2328C24.2663 38.2328 23.8094 38.4208 23.4711 38.7558L21.5266 40.6864C21.3597 40.8518 21.2273 41.0486 21.1369 41.2654C21.0465 41.4823 21 41.7149 21 41.9498C21 42.1847 21.0465 42.4173 21.1369 42.6342C21.2273 42.851 21.3597 43.0478 21.5266 43.2132C21.865 43.5489 22.3223 43.7372 22.799 43.7372C23.2756 43.7372 23.7329 43.5489 24.0714 43.2132L26.0119 41.2827C26.1787 41.1173 26.3112 40.9205 26.4015 40.7036C26.4919 40.4868 26.5384 40.2542 26.5384 40.0193C26.5384 39.7843 26.4919 39.5517 26.4015 39.3349ZM38.684 49.7592C38.8508 49.9246 38.9833 50.1214 39.0736 50.3382C39.164 50.5551 39.2106 50.7877 39.2106 51.0226C39.2106 51.2576 39.164 51.4902 39.0736 51.707C38.9833 51.9239 38.8508 52.1207 38.684 52.286L36.7415 54.2166C36.4042 54.5536 35.9469 54.7428 35.4701 54.7428C34.9933 54.7428 34.536 54.5536 34.1987 54.2166C33.9338 53.954 33.7581 53.6147 33.6966 53.2468C33.635 52.8789 33.6907 52.5009 33.8557 52.1664L33.8577 52.1624C33.9446 51.9872 34.0598 51.8275 34.1987 51.6897L36.1412 49.7592C36.4795 49.4242 36.9364 49.2362 37.4126 49.2362C37.8887 49.2362 38.3456 49.4242 38.684 49.7592ZM30.397 22.7218C28.6309 23.326 27.0251 24.3236 25.7009 25.6392V25.6412C24.2256 27.102 23.149 28.9163 22.5737 30.9111C21.9983 32.9059 21.9434 35.0149 22.4142 37.0369C23.1466 36.4739 24.0583 36.1955 24.9802 36.2534C25.9022 36.3114 26.7719 36.7017 27.428 37.352C28.0164 37.9339 28.3957 38.694 28.507 39.5139C29.1518 39.3405 29.831 39.3395 30.4764 39.511C31.1217 39.6825 31.7108 40.0205 32.1845 40.4911C32.5566 40.8594 32.8474 41.3014 33.0384 41.7888C33.2294 42.2762 33.3162 42.7981 33.2934 43.3211C33.8184 43.2978 34.3426 43.3836 34.8328 43.573C35.3229 43.7625 35.7685 44.0516 36.1413 44.422C36.5137 44.7904 36.8048 45.2327 36.9958 45.7205C37.1868 46.2083 37.2734 46.7307 37.2502 47.254C37.7754 47.2309 38.2996 47.317 38.7898 47.5068C39.28 47.6967 39.7255 47.9861 40.0981 48.3569C40.4505 48.7062 40.7302 49.1218 40.9211 49.5798C41.112 50.0378 41.2103 50.5291 41.2103 51.0253C41.2103 51.5215 41.112 52.0128 40.9211 52.4708C40.7302 52.9288 40.4505 53.3444 40.0981 53.6937L39.0531 54.7348L41.907 57.4471C42.086 57.6239 42.2981 57.7637 42.5311 57.8585C42.7642 57.9533 43.0136 58.0013 43.2652 57.9998C43.5168 57.9982 43.7656 57.9471 43.9974 57.8493C44.2292 57.7516 44.4395 57.6092 44.6163 57.4302C44.7931 57.2512 44.9329 57.0391 45.0277 56.806C45.1226 56.573 45.1705 56.3236 45.169 56.072C45.1674 55.8204 45.1163 55.5716 45.0186 55.3398C44.9208 55.1079 44.7784 54.8976 44.5994 54.7208L44.1646 54.2841C44.0694 54.1921 43.9934 54.0821 43.9411 53.9604C43.8889 53.8387 43.8614 53.7079 43.8602 53.5755C43.8591 53.4431 43.8843 53.3118 43.9344 53.1892C43.9846 53.0667 44.0586 52.9553 44.1522 52.8617C44.2459 52.7681 44.3572 52.694 44.4798 52.6439C44.6023 52.5938 44.7336 52.5685 44.866 52.5697C44.9984 52.5708 45.1293 52.5983 45.2509 52.6506C45.3726 52.7029 45.4826 52.7788 45.5746 52.8741L45.9934 53.2929L46.0154 53.3188H46.0194C46.1919 53.5021 46.3995 53.6488 46.6299 53.7504C46.8602 53.852 47.1086 53.9062 47.3603 53.91C47.612 53.9138 47.8619 53.867 48.0952 53.7724C48.3285 53.6779 48.5404 53.5374 48.7184 53.3594C48.8964 53.1814 49.0369 52.9695 49.1315 52.7362C49.2261 52.5029 49.2728 52.253 49.269 52.0013C49.2653 51.7496 49.211 51.5012 49.1094 51.2709C49.0079 51.0405 48.8611 50.8329 48.6778 50.6603L48.2331 50.2156C48.1374 50.1205 48.0621 50.0069 48.0117 49.8817C47.9613 49.7566 47.9369 49.6225 47.9399 49.4877C47.9364 49.2891 47.9922 49.0939 48.1002 48.9272C48.2083 48.7606 48.3637 48.63 48.5465 48.5522C48.7292 48.4744 48.9311 48.453 49.1261 48.4907C49.3211 48.5284 49.5005 48.6234 49.6411 48.7637L49.9801 49.1008C50.3668 49.4537 50.8746 49.6439 51.3979 49.632C51.9212 49.6201 52.4198 49.4069 52.79 49.0367C53.1601 48.6666 53.3733 48.168 53.3852 47.6446C53.3972 47.1213 53.2069 46.6135 52.854 46.2269L52.7662 46.1391C52.6785 46.0634 52.5947 45.9836 52.511 45.9018L50.2175 43.6083C50.1222 43.5163 50.0463 43.4063 49.994 43.2846C49.9417 43.163 49.9142 43.0321 49.9131 42.8997C49.9119 42.7673 49.9372 42.636 49.9873 42.5135C50.0374 42.3909 50.1115 42.2796 50.2051 42.1859C50.2987 42.0923 50.4101 42.0183 50.5326 41.9681C50.6552 41.918 50.7865 41.8928 50.9189 41.8939C51.0513 41.8951 51.1821 41.9226 51.3038 41.9748C51.4255 42.0271 51.5355 42.1031 51.6275 42.1983L53.8073 44.3761C53.8498 44.4075 53.8898 44.4422 53.927 44.4798L54.1184 44.6713C54.687 45.1367 55.4123 45.3663 56.1451 45.3128C56.8779 45.2593 57.5622 44.9268 58.0572 44.3838C58.5521 43.8408 58.82 43.1286 58.8055 42.394C58.791 41.6595 58.4954 40.9584 57.9795 40.4353L55.686 38.1418C55.6607 38.1165 55.6367 38.0898 55.6142 38.062L48.62 31.1616H40.2736L36.9151 33.7044C35.8766 34.49 34.5694 34.8329 33.2789 34.6585C31.9884 34.484 30.8193 33.8062 30.0266 32.773C29.634 32.2613 29.3465 31.677 29.1807 31.0537C29.0149 30.4304 28.974 29.7805 29.0603 29.1413C29.1467 28.5022 29.3587 27.8864 29.684 27.3295C30.0094 26.7726 30.4417 26.2856 30.956 25.8965L35.896 22.1511C34.0435 21.9224 32.1631 22.1175 30.397 22.7218Z" fill="white"/>
</svg>
