<svg width="40" height="40" viewBox="0 0 40 40" fill="none" xmlns="http://www.w3.org/2000/svg">
<circle cx="20" cy="20" r="20" transform="rotate(90 20 20)" fill="#F7941E"/>
<path d="M16 19.9998C15.9995 19.7661 16.0809 19.5397 16.23 19.3598L21.23 13.3598C21.3997 13.1556 21.6436 13.0271 21.9081 13.0028C22.1725 12.9784 22.4358 13.06 22.64 13.2298C22.8442 13.3995 22.9726 13.6434 22.997 13.9079C23.0214 14.1723 22.9397 14.4356 22.77 14.6398L18.29 19.9998L22.61 25.3598C22.6931 25.4621 22.7551 25.5798 22.7925 25.7061C22.83 25.8324 22.8421 25.9649 22.8281 26.096C22.8142 26.227 22.7745 26.354 22.7113 26.4696C22.6481 26.5853 22.5627 26.6873 22.46 26.7698C22.3572 26.8614 22.2366 26.9307 22.1057 26.9735C21.9748 27.0163 21.8365 27.0316 21.6994 27.0185C21.5624 27.0053 21.4295 26.964 21.3091 26.8971C21.1888 26.8303 21.0835 26.7392 21 26.6298L16.17 20.6298C16.0445 20.4447 15.9846 20.2229 16 19.9998Z" fill="white"/>
</svg>
