<svg width="40" height="40" viewBox="0 0 40 40" fill="none" xmlns="http://www.w3.org/2000/svg">
<path fill-rule="evenodd" clip-rule="evenodd" d="M15.5428 13.7143C15.5428 14.661 14.7497 15.4285 13.7714 15.4285C12.7931 15.4285 12 14.661 12 13.7143C12 12.7675 12.7931 12 13.7714 12C14.7497 12 15.5428 12.7675 15.5428 13.7143ZM12.0572 28H15.4857V16.5715H12.0572V28ZM24.6285 28H28.057V21.5463C28.057 20.0024 27.6948 18.9029 26.9668 18.0835C26.2433 17.2652 25.2959 16.9395 24.1245 16.9395C22.5839 16.9395 21.4605 17.7144 20.7577 18.8572H20.6868L20.4777 16.5715H17.7714C17.8171 17.7144 17.7714 28 17.7714 28H21.2V20.8435C21.4834 19.9555 22.048 19.5121 22.9382 19.5121C24.0616 19.5121 24.6285 20.3041 24.6285 21.8949V28Z" fill="white"/>
<rect x="0.5" y="0.5" width="39" height="39" rx="7.5" stroke="#E5E5E5"/>
</svg>
