<svg width="40" height="40" viewBox="0 0 40 40" fill="none" xmlns="http://www.w3.org/2000/svg">
<rect width="40" height="40" rx="8" fill="#F7941E"/>
<path d="M21.9499 20.9959H16.9999V16.0459L22.6099 10.4359C21.7696 10.1484 20.8881 9.99977 19.9999 9.99594C15.7999 9.99594 11.9999 13.2159 11.9999 18.1959C11.9999 21.5159 14.6699 25.4459 19.9999 29.9959C25.3299 25.4459 27.9999 21.5159 27.9999 18.1959C27.9999 17.1859 27.8399 16.2559 27.5499 15.3959L21.9499 20.9959ZM18.9999 18.9959H21.1199L27.2799 12.8359L25.1599 10.7159L18.9999 16.8759V18.9959ZM27.2899 8.58594L25.8699 10.0059L27.9899 12.1259L29.4099 10.7059L27.2899 8.58594Z" fill="white"/>
</svg>
