<svg width="40" height="40" viewBox="0 0 40 40" fill="none" xmlns="http://www.w3.org/2000/svg">
<rect width="40" height="40" rx="8" fill="#F7941E"/>
<path d="M24.8101 8H14.3101C13.0679 8 12.0601 9.00781 12.0601 10.25V29.75C12.0601 30.9922 13.0679 32 14.3101 32H24.8101C26.0522 32 27.0601 30.9922 27.0601 29.75V10.25C27.0601 9.00781 26.0522 8 24.8101 8ZM19.5601 30.5C18.7304 30.5 18.0601 29.8297 18.0601 29C18.0601 28.1703 18.7304 27.5 19.5601 27.5C20.3897 27.5 21.0601 28.1703 21.0601 29C21.0601 29.8297 20.3897 30.5 19.5601 30.5ZM24.8101 25.4375C24.8101 25.7469 24.5569 26 24.2476 26H14.8726C14.5632 26 14.3101 25.7469 14.3101 25.4375V10.8125C14.3101 10.5031 14.5632 10.25 14.8726 10.25H24.2476C24.5569 10.25 24.8101 10.5031 24.8101 10.8125V25.4375Z" fill="white"/>
</svg>
