<svg width="24" height="24" viewBox="0 0 24 24" fill="none" xmlns="http://www.w3.org/2000/svg">
<rect width="24" height="24" rx="4" fill="#474747"/>
<path d="M15.7687 12C15.7691 12.1055 15.7422 12.2094 15.6906 12.3014C15.639 12.3935 15.5644 12.4706 15.4742 12.5253L9.93636 15.9096C9.84308 15.9667 9.73629 15.9978 9.62698 15.9999C9.51766 16.002 9.40978 15.9749 9.31441 15.9214C9.21905 15.8679 9.13965 15.79 9.08439 15.6957C9.02913 15.6013 9 15.494 9 15.3846V8.61539C9 8.50605 9.02912 8.39868 9.08439 8.30434C9.13965 8.21 9.21905 8.13208 9.31442 8.07861C9.40979 8.02514 9.51769 7.99804 9.627 8.00011C9.73632 8.00218 9.84312 8.03334 9.9364 8.09038L15.4742 11.4747C15.5644 11.5294 15.639 11.6066 15.6906 11.6986C15.7422 11.7907 15.7691 11.8945 15.7687 12Z" fill="white"/>
</svg>
