<svg width="676" height="592" viewBox="0 0 676 592" fill="none" xmlns="http://www.w3.org/2000/svg">
<path d="M644.059 338.286L659.413 337.394C661.752 325.543 661.752 313.348 659.413 301.497L644.059 300.605C642.218 293.307 639.314 286.32 635.44 279.868L645.664 268.371C638.951 258.338 630.339 249.719 620.314 242.999L608.823 253.22C602.369 249.348 595.38 246.448 588.082 244.615L587.191 229.248C575.35 226.907 563.165 226.907 551.324 229.248L550.433 244.615C543.135 246.448 536.146 249.348 529.692 253.22L518.205 242.987C508.181 249.706 499.569 258.325 492.855 268.358L503.079 279.855C499.211 286.315 496.314 293.309 494.481 300.613L479.115 301.497C476.776 313.348 476.776 325.543 479.115 337.394L494.469 338.286C496.301 345.59 499.198 352.585 503.066 359.044L492.842 370.541C499.556 380.574 508.168 389.193 518.192 395.913L529.68 385.68C536.134 389.552 543.122 392.451 550.42 394.285L551.312 409.651C563.153 411.993 575.337 411.993 587.178 409.651L588.069 394.285C595.37 392.461 602.363 389.572 608.823 385.709L620.31 395.942C630.334 389.223 638.946 380.604 645.66 370.571L635.44 359.065C639.318 352.6 642.222 345.599 644.059 338.286ZM569.277 349.961C563.246 349.961 557.35 348.171 552.336 344.818C547.322 341.464 543.414 336.698 541.106 331.122C538.798 325.546 538.194 319.409 539.371 313.49C540.547 307.57 543.451 302.132 547.716 297.864C551.98 293.596 557.413 290.69 563.328 289.512C569.243 288.335 575.374 288.939 580.945 291.249C586.517 293.559 591.279 297.47 594.63 302.489C597.98 307.507 599.768 313.408 599.768 319.443C599.771 323.453 598.984 327.424 597.453 331.129C595.922 334.835 593.676 338.202 590.843 341.038C588.011 343.874 584.648 346.124 580.947 347.658C577.246 349.193 573.279 349.983 569.272 349.982L569.277 349.961Z" fill="#87BFC1"/>
<path d="M493.872 98.5169L268.806 132.021C256.98 133.781 248.819 144.804 250.578 156.64L297.706 473.766C299.465 485.602 310.478 493.77 322.305 492.01L547.37 458.506C559.197 456.745 567.358 445.723 565.599 433.886L518.47 116.761C516.711 104.924 505.698 96.7564 493.872 98.5169Z" fill="white" stroke="#474747" stroke-width="2" stroke-linecap="round" stroke-linejoin="round"/>
<path d="M273.116 183.096L246.625 187.04C243.163 187.555 240.774 190.782 241.289 194.246L241.498 195.652C242.013 199.117 245.237 201.508 248.699 200.993L275.19 197.049C278.652 196.534 281.041 193.307 280.526 189.842L280.317 188.437C279.802 184.972 276.578 182.581 273.116 183.096Z" fill="#DE9244"/>
<path d="M285.243 264.71L258.752 268.654C255.29 269.169 252.901 272.396 253.416 275.861L253.625 277.266C254.14 280.731 257.364 283.122 260.826 282.607L287.317 278.664C290.779 278.148 293.168 274.921 292.653 271.457L292.444 270.051C291.929 266.586 288.705 264.195 285.243 264.71Z" fill="#DE9244"/>
<path d="M297.374 346.32L270.883 350.264C267.421 350.779 265.032 354.006 265.547 357.471L265.756 358.876C266.271 362.341 269.495 364.732 272.957 364.217L299.447 360.273C302.909 359.758 305.299 356.531 304.784 353.066L304.575 351.661C304.06 348.196 300.836 345.805 297.374 346.32Z" fill="#DE9244"/>
<path d="M309.501 427.935L283.01 431.878C279.548 432.394 277.159 435.62 277.674 439.085L277.883 440.491C278.398 443.956 281.622 446.347 285.084 445.831L311.575 441.888C315.037 441.372 317.426 438.146 316.911 434.681L316.702 433.276C316.187 429.811 312.963 427.419 309.501 427.935Z" fill="#DE9244"/>
<path d="M597.172 131.427L374.407 85.0122C362.701 82.5733 351.237 90.0933 348.8 101.809L283.51 415.693C281.073 427.409 288.586 438.883 300.292 441.322L523.057 487.737C534.763 490.176 546.227 482.656 548.664 470.941L613.954 157.056C616.391 145.34 608.877 133.866 597.172 131.427Z" fill="white" stroke="#474747" stroke-width="2" stroke-linecap="round" stroke-linejoin="round"/>
<path d="M411.021 129.499L385.376 124.155C381.15 123.275 377.01 125.99 376.131 130.22L370.792 155.887C369.912 160.116 372.625 164.259 376.851 165.14L402.496 170.483C406.722 171.364 410.861 168.648 411.741 164.419L417.08 138.752C417.96 134.522 415.247 130.379 411.021 129.499Z" fill="#87BFC1"/>
<path d="M568.352 175.022L443.435 148.994C438.866 148.042 434.392 150.977 433.44 155.55C432.489 160.123 435.422 164.601 439.991 165.553L564.908 191.581C569.477 192.533 573.951 189.598 574.903 185.025C575.854 180.452 572.921 175.974 568.352 175.022Z" fill="#DE9244"/>
<path d="M394.055 211.055L368.41 205.711C364.183 204.831 360.044 207.546 359.164 211.776L353.826 237.442C352.946 241.672 355.658 245.815 359.885 246.696L385.53 252.039C389.756 252.919 393.895 250.204 394.775 245.975L400.114 220.308C400.994 216.078 398.281 211.935 394.055 211.055Z" fill="#87BFC1"/>
<path d="M551.386 256.577L426.469 230.55C421.9 229.598 417.425 232.533 416.474 237.106C415.523 241.679 418.456 246.157 423.025 247.109L547.941 273.137C552.51 274.088 556.985 271.153 557.936 266.581C558.888 262.008 555.955 257.529 551.386 256.577Z" fill="#DE9244"/>
<path d="M377.094 292.606L351.449 287.263C347.222 286.383 343.083 289.098 342.203 293.327L336.865 318.994C335.985 323.224 338.698 327.367 342.924 328.247L368.569 333.591C372.795 334.471 376.934 331.756 377.814 327.526L383.153 301.86C384.033 297.63 381.32 293.487 377.094 292.606Z" fill="#87BFC1"/>
<path d="M534.421 338.132L409.504 312.105C404.935 311.153 400.46 314.088 399.509 318.661C398.558 323.234 401.491 327.712 406.059 328.664L530.976 354.692C535.545 355.644 540.02 352.708 540.971 348.136C541.922 343.563 538.99 339.084 534.421 338.132Z" fill="#DE9244"/>
<path d="M360.132 374.162L334.487 368.819C330.26 367.938 326.121 370.654 325.241 374.883L319.903 400.55C319.023 404.78 321.735 408.923 325.962 409.803L351.607 415.147C355.833 416.027 359.972 413.312 360.852 409.082L366.191 383.415C367.071 379.186 364.358 375.043 360.132 374.162Z" fill="#87BFC1"/>
<path d="M517.454 419.688L392.538 393.661C387.969 392.709 383.494 395.644 382.543 400.217C381.592 404.79 384.524 409.268 389.093 410.22L514.01 436.248C518.579 437.2 523.054 434.264 524.005 429.692C524.956 425.119 522.023 420.64 517.454 419.688Z" fill="#DE9244"/>
<path d="M104.941 300.859C104.941 300.859 115.469 303.946 117.489 306.335C119.508 308.724 116.914 311.409 116.914 311.409C116.914 311.409 120.843 320.069 120.632 323.249C120.421 326.429 115.985 324.737 115.985 324.737C115.985 324.737 105.101 329.013 101.991 327.292C98.8819 325.571 97.175 304.779 97.175 304.779C97.175 304.779 78.5005 275.601 76.5232 259.918C74.5459 244.234 82.5818 240.72 91.9571 245.211C96.9299 247.591 102.714 291.158 104.941 300.859Z" fill="white" stroke="#474747" stroke-width="2" stroke-linecap="round" stroke-linejoin="round"/>
<path d="M74.36 246.593C74.36 246.593 74.0769 255.659 82.3368 260.573C90.5967 265.487 98.3918 260.459 98.3918 260.459C98.3918 260.459 131.617 219.514 132.141 208.447C132.665 197.381 125.212 192.721 114.793 197.504C101.045 203.817 74.36 246.593 74.36 246.593Z" fill="#DD9144"/>
<path d="M78.3949 245.101C78.3949 245.101 79.5018 252.712 85.8816 256.095C92.6416 259.681 98.6876 255.778 98.6876 255.778" stroke="#474747" stroke-width="2" stroke-linecap="round" stroke-linejoin="round"/>
<path d="M107.999 453.117L85.9999 444.182L96.1399 399.545C96.1399 399.545 91.5219 305.692 110.784 286.253C128.529 268.345 152.214 276.781 147.765 298.647C144.385 315.337 135.513 368.491 131.528 392.712C130.286 400.226 129.517 404.975 129.517 404.975L124.295 416.667L107.999 453.117Z" fill="#87BFC1"/>
<path d="M116.893 333.533L110.746 335.436C110.394 335.547 110.016 335.547 109.664 335.436L103.749 333.533C103.394 333.418 103.088 333.186 102.881 332.875C102.674 332.564 102.578 332.193 102.608 331.82L103.335 320.826C103.373 320.342 103.59 319.889 103.944 319.556C104.298 319.224 104.764 319.036 105.249 319.029H117.29C117.523 319.024 117.753 319.068 117.968 319.158C118.182 319.248 118.375 319.382 118.534 319.551C118.694 319.721 118.816 319.922 118.893 320.141C118.969 320.361 118.999 320.594 118.98 320.826L118.254 331.82C118.223 332.209 118.078 332.58 117.835 332.885C117.593 333.19 117.265 333.416 116.893 333.533Z" fill="white"/>
<path d="M124.295 416.65C123.911 416.522 123.535 416.368 123.171 416.189C117.958 413.609 116.238 406.463 119.322 400.209C121.857 395.042 126.927 392.111 131.528 392.716C130.286 400.23 129.517 404.979 129.517 404.979L124.295 416.65Z" fill="white"/>
<path d="M122.914 341.339L111.734 402.907L99.6762 442.406" stroke="#474747" stroke-width="2" stroke-linecap="round" stroke-linejoin="round"/>
<path d="M91.5177 447.29L80.8834 478.196L91.5262 481.503L105.595 454.034L91.5177 447.29Z" fill="white" stroke="#474747" stroke-width="2" stroke-linecap="round" stroke-linejoin="round"/>
<path d="M125.432 508.997V513.56H69.421C69.421 513.56 69.421 511.408 69.6027 508.016C70.0252 499.91 71.5293 484.704 76.5866 474.936H97.2637C97.2637 474.936 102.756 491.132 120.396 500.595C121.768 501.331 122.94 502.393 123.809 503.686C124.678 504.98 125.218 506.466 125.381 508.016C125.415 508.342 125.431 508.67 125.432 508.997Z" fill="#87BFC1"/>
<path d="M125.432 508.997V513.56H69.421C69.421 513.56 69.421 511.407 69.6027 508.016H125.373C125.409 508.342 125.429 508.669 125.432 508.997Z" fill="white" stroke="#474747" stroke-width="2" stroke-linecap="round" stroke-linejoin="round"/>
<path d="M83.5198 439.573L112.592 453.066L104.188 468.158L78.5977 456.216L83.5198 439.573Z" fill="white" stroke="#474747" stroke-width="2" stroke-linecap="round" stroke-linejoin="round"/>
<path d="M206.856 448.753L185.207 450.639L172.9 404.082C172.9 404.082 142.188 357.568 138.525 346.574C134.862 335.579 125.85 323.071 128.896 298.034C131.943 272.997 168.421 271.052 174.116 292.617C178.464 309.109 194.067 360.697 201.207 384.166C203.421 391.452 204.824 396.035 204.824 396.035L205.335 408.831L206.856 448.753Z" fill="#87BFC1"/>
<path d="M155.121 333.533L149.527 335.436C149.175 335.547 148.797 335.547 148.445 335.436L141.998 333.533C141.601 333.413 141.241 333.192 140.954 332.892C140.667 332.592 140.462 332.223 140.359 331.82L137.904 320.826C137.84 320.613 137.827 320.387 137.868 320.168C137.909 319.949 138.001 319.743 138.138 319.567C138.274 319.391 138.451 319.251 138.653 319.157C138.855 319.063 139.076 319.019 139.298 319.029H151.34C151.85 319.052 152.34 319.239 152.736 319.563C153.132 319.887 153.412 320.33 153.537 320.826L155.991 331.82C156.093 332.163 156.059 332.532 155.897 332.85C155.736 333.169 155.458 333.413 155.121 333.533Z" fill="white"/>
<path d="M135.331 338.544C131.33 329.105 126.556 317.265 128.901 298.038C129.128 296.119 129.584 294.233 130.261 292.423" stroke="#474747" stroke-width="2" stroke-linecap="round" stroke-linejoin="round"/>
<path d="M205.335 408.831C204.933 408.887 204.528 408.915 204.122 408.916C198.309 408.916 193.598 403.266 193.598 396.298C193.598 390.534 196.822 385.671 201.203 384.166C203.417 391.452 204.82 396.035 204.82 396.035L205.335 408.831Z" fill="white"/>
<path d="M163.93 299.18L165.764 307.062C166.225 309.045 166.173 311.113 165.615 313.07C165.056 315.028 164.008 316.811 162.57 318.251L161.357 319.464" stroke="#474747" stroke-width="2" stroke-linecap="round" stroke-linejoin="round"/>
<path d="M155.26 300.516L187.974 402.082L194.65 442.837" stroke="#474747" stroke-width="2" stroke-linecap="round" stroke-linejoin="round"/>
<path d="M192.157 450.838L196.306 483.258L207.312 481.503L207.764 450.639L192.157 450.838Z" fill="white" stroke="#474747" stroke-width="2" stroke-linecap="round" stroke-linejoin="round"/>
<path d="M241.218 508.997V513.56H185.207C185.207 513.56 185.207 511.408 185.389 508.016C185.811 499.91 187.315 484.704 192.373 474.936H213.05C213.05 474.936 218.542 491.132 236.182 500.595C237.554 501.331 238.726 502.393 239.595 503.686C240.464 504.98 241.004 506.466 241.167 508.016C241.201 508.342 241.218 508.67 241.218 508.997Z" fill="#87BFC1"/>
<path d="M241.218 508.997V513.56H185.207C185.207 513.56 185.207 511.407 185.389 508.016H241.159C241.195 508.342 241.215 508.669 241.218 508.997Z" fill="white" stroke="#474747" stroke-width="2" stroke-linecap="round" stroke-linejoin="round"/>
<path d="M179.474 447.112L213.603 446.668L212.754 463.925L182.431 464.213L179.474 447.112Z" fill="white" stroke="#474747" stroke-width="2" stroke-linecap="round" stroke-linejoin="round"/>
<path d="M135.479 170.073C136.159 172.082 147.237 185.66 156.769 179.203C166.3 172.746 161.91 148.791 154.753 145.459C147.596 142.126 126.264 142.926 135.479 170.073Z" fill="white" stroke="#474747" stroke-width="2" stroke-linecap="round" stroke-linejoin="round"/>
<path d="M130.422 188.349L133.379 172.648L142.488 171.211L143.95 188.696L130.422 188.349Z" fill="white" stroke="#474747" stroke-width="2" stroke-linecap="round" stroke-linejoin="round"/>
<path d="M131.469 173.553C133.84 174.399 139.831 174.775 142.733 174.141L143.836 168.297C143.836 168.297 136.953 159.514 141.432 155.844C145.91 152.173 150.545 157.561 151.065 162.66C151.585 167.76 165.852 161.7 165.654 153.417C165.455 145.133 156.541 142.57 156.541 142.57C156.541 142.57 149.979 133.648 135.838 140.033C121.697 146.418 123.624 160.821 131.469 173.553Z" fill="#474747"/>
<path d="M123.653 196.489C123.653 196.489 124.777 186.425 134.034 186.023C143.291 185.622 149.328 186.831 150.135 195.491L123.653 196.489Z" fill="white" stroke="#474747" stroke-width="2" stroke-linecap="round" stroke-linejoin="round"/>
<path d="M131.486 193.444C112.727 193.444 106.474 210.431 103.2 230.694C99.9255 250.957 96.0554 311.916 96.0554 311.916C96.0554 311.916 130.21 317.591 182.313 312.225L170.483 256.023C170.483 256.023 176.436 235.163 177.927 229.205C179.419 223.247 160.064 197.618 154.69 194.954C149.316 192.29 131.486 193.444 131.486 193.444Z" fill="#DD9144"/>
<path d="M116.441 198.688C108.861 205.242 105.376 217.247 103.2 230.694C102.266 236.457 101.29 245.494 100.365 255.524" stroke="#474747" stroke-width="2" stroke-linecap="round" stroke-linejoin="round"/>
<path d="M101.594 306.572C101.594 306.572 136.429 311.088 174.957 306.572" stroke="#474747" stroke-width="2" stroke-linecap="round" stroke-linejoin="round"/>
<path d="M219.239 165.967C219.239 170.479 217.127 174.141 214.474 174.141C213.974 174.137 213.483 174.009 213.046 173.769L169.951 170.593V161.337L213.046 158.165C213.482 157.921 213.974 157.792 214.474 157.789C217.106 157.789 219.239 161.451 219.239 165.967Z" fill="white" stroke="#474747" stroke-width="2" stroke-linecap="round" stroke-linejoin="round"/>
<path d="M169.934 170.593C171.422 170.593 172.629 168.522 172.629 165.967C172.629 163.412 171.422 161.341 169.934 161.341C168.445 161.341 167.238 163.412 167.238 165.967C167.238 168.522 168.445 170.593 169.934 170.593Z" fill="white" stroke="#474747" stroke-width="2" stroke-linecap="round" stroke-linejoin="round"/>
<path d="M182.228 215.919C182.228 215.919 188.245 195.479 189.411 185.157C189.411 185.157 180.116 178.467 178.95 175.431C177.784 172.395 181.274 170.631 181.274 170.631C181.274 170.631 180.403 160.741 181.696 157.688C182.989 154.635 186.766 157.832 186.766 157.832C186.766 157.832 198.972 157.409 201.444 160.157C203.915 162.906 198.393 184.006 198.393 184.006C198.393 184.006 204.955 216.423 201.469 232.572C197.984 248.72 186.648 247.985 178.232 241.151C169.815 234.318 182.228 215.919 182.228 215.919Z" fill="white" stroke="#474747" stroke-width="2" stroke-linecap="round" stroke-linejoin="round"/>
<path d="M176.449 245.173C176.449 245.173 185.854 246.209 191.638 238.009C197.422 229.81 192.833 221.281 192.833 221.281C192.833 221.281 168.155 196.705 156.671 195.25C145.188 193.795 139.771 201.17 143.874 212.422C149.307 227.239 176.449 245.173 176.449 245.173Z" fill="#DD9144"/>
<path d="M175.232 240.83C175.232 240.83 183.259 240.301 187.29 233.933C191.57 227.201 188.008 220.567 188.008 220.567" stroke="#474747" stroke-width="2" stroke-linecap="round" stroke-linejoin="round"/>
<path d="M143.227 201.259C142.108 204.181 142.247 208.025 143.865 212.422C148.09 223.915 165.35 237.282 172.891 242.703" stroke="#474747" stroke-width="2" stroke-linecap="round" stroke-linejoin="round"/>
<path d="M124.84 145.742C124.84 145.742 118.849 130.172 104.898 133.8C90.9473 137.428 89.6629 154.922 91.7374 166.246C93.8119 177.57 83.2325 180.657 76.4725 181.744C69.7125 182.831 69.5942 207.69 94.3358 202.832C119.077 197.973 115.926 175.828 115.41 164.479C114.895 153.129 119.048 149.844 124.79 150.905C130.531 151.966 124.84 145.742 124.84 145.742Z" fill="#474747"/>
<path d="M125.005 146.376L124.016 151.079C123.942 151.435 124.009 151.806 124.204 152.113C124.399 152.421 124.706 152.64 125.06 152.723L128.77 153.607C128.955 153.65 129.147 153.655 129.334 153.621C129.521 153.587 129.699 153.515 129.857 153.41C130.015 153.305 130.151 153.168 130.254 153.008C130.358 152.849 130.428 152.67 130.46 152.482L131.305 147.565C131.365 147.204 131.282 146.834 131.072 146.534C130.863 146.234 130.544 146.029 130.185 145.962L126.632 145.298C126.274 145.229 125.903 145.303 125.599 145.505C125.294 145.707 125.081 146.019 125.005 146.376Z" fill="white" stroke="#474747" stroke-width="4" stroke-linecap="round" stroke-linejoin="round"/>
<path d="M194.65 89.4937V95.2318" stroke="#474747" stroke-width="2" stroke-linecap="round" stroke-linejoin="round"/>
<path d="M203.299 98.1494H197.565" stroke="#474747" stroke-width="2" stroke-linecap="round" stroke-linejoin="round"/>
<path d="M194.65 106.805V101.067" stroke="#474747" stroke-width="2" stroke-linecap="round" stroke-linejoin="round"/>
<path d="M186.006 98.1494H191.739" stroke="#474747" stroke-width="2" stroke-linecap="round" stroke-linejoin="round"/>
<path d="M45.837 342.392V347.288" stroke="#474747" stroke-width="2" stroke-linecap="round" stroke-linejoin="round"/>
<path d="M53.2139 349.775H48.3213" stroke="#474747" stroke-width="2" stroke-linecap="round" stroke-linejoin="round"/>
<path d="M45.837 357.158V352.261" stroke="#474747" stroke-width="2" stroke-linecap="round" stroke-linejoin="round"/>
<path d="M38.4602 349.775H43.3485" stroke="#474747" stroke-width="2" stroke-linecap="round" stroke-linejoin="round"/>
<path d="M219.239 291.797V296.694" stroke="#474747" stroke-width="2" stroke-linecap="round" stroke-linejoin="round"/>
<path d="M226.616 299.18H221.724" stroke="#474747" stroke-width="2" stroke-linecap="round" stroke-linejoin="round"/>
<path d="M219.239 306.563V301.666" stroke="#474747" stroke-width="2" stroke-linecap="round" stroke-linejoin="round"/>
<path d="M211.863 299.18H216.755" stroke="#474747" stroke-width="2" stroke-linecap="round" stroke-linejoin="round"/>
<path d="M269.335 478.632C273.262 478.632 276.446 475.446 276.446 471.515C276.446 467.585 273.262 464.399 269.335 464.399C265.408 464.399 262.225 467.585 262.225 471.515C262.225 475.446 265.408 478.632 269.335 478.632Z" fill="#88C0C2"/>
<circle cx="646" cy="25" r="6" fill="#559AD3"/>
</svg>
