<svg width="40" height="40" viewBox="0 0 40 40" fill="none" xmlns="http://www.w3.org/2000/svg">
<circle cx="20" cy="20" r="20" transform="rotate(-90 20 20)" fill="#F7941E"/>
<path d="M24 20.0002C24.0005 20.2339 23.9191 20.4603 23.77 20.6402L18.77 26.6402C18.6003 26.8444 18.3564 26.9729 18.092 26.9972C17.8275 27.0216 17.5642 26.94 17.36 26.7702C17.1558 26.6005 17.0274 26.3566 17.003 26.0921C16.9786 25.8277 17.0603 25.5644 17.23 25.3602L21.71 20.0002L17.39 14.6402C17.307 14.5379 17.2449 14.4202 17.2075 14.2939C17.1701 14.1676 17.158 14.0351 17.1719 13.904C17.1859 13.773 17.2256 13.646 17.2887 13.5304C17.3519 13.4147 17.4373 13.3127 17.54 13.2302C17.6429 13.1386 17.7635 13.0693 17.8944 13.0265C18.0252 12.9837 18.1635 12.9684 18.3006 12.9815C18.4377 12.9947 18.5705 13.036 18.6909 13.1029C18.8112 13.1697 18.9165 13.2608 19 13.3702L23.83 19.3702C23.9555 19.5553 24.0154 19.7771 24 20.0002Z" fill="white"/>
</svg>
