<svg width="13" height="12" viewBox="0 0 13 12" fill="none" xmlns="http://www.w3.org/2000/svg">
<path d="M11.4362 0H6.70147L1.28815 5.8625C1.04902 6.1125 0.920489 6.44063 0.914511 6.76875C0.905544 7.12188 1.03109 7.475 1.28815 7.74375L4.98571 11.6062C5.22484 11.8562 5.60745 11.9969 5.84658 11.9969C6.08571 11.9969 6.5281 11.875 6.78516 11.6062L12.3928 6V1L11.4362 0ZM10.5186 3.20937C9.86995 3.4 9.28408 2.89687 9.28408 2.25C9.28408 1.69687 9.71152 1.25 10.2406 1.25C10.8593 1.25 11.3406 1.8625 11.1583 2.54063C11.0716 2.8625 10.8265 3.11875 10.5186 3.20937Z" fill="#F7941E"/>
</svg>
