<svg width="40" height="40" viewBox="0 0 40 40" fill="none" xmlns="http://www.w3.org/2000/svg">
<path d="M17.7951 29C24.7559 29 28.5643 23.2271 28.5643 18.2298C28.5643 18.0675 28.5643 17.9052 28.5569 17.7429C29.2985 17.2054 29.9385 16.5402 30.4468 15.7783C29.7547 16.0841 29.0212 16.2858 28.2701 16.3769C29.0615 15.9031 29.654 15.1581 29.9377 14.2804C29.1938 14.7217 28.3794 15.0315 27.5303 15.1963C27.1769 14.8186 26.7497 14.5176 26.2751 14.3118C25.8006 14.1061 25.2889 13.9999 24.7716 14C23.7674 14.0007 22.8046 14.4 22.0945 15.11C21.3845 15.8201 20.9852 16.7829 20.9845 17.7871C20.9845 18.0823 21.0214 18.37 21.0804 18.6504C19.5751 18.5748 18.1024 18.1835 16.7581 17.5018C15.4139 16.8201 14.228 15.8634 13.2774 14.6936C12.7944 15.5279 12.6469 16.5148 12.865 17.4538C13.0831 18.3929 13.6503 19.2138 14.4516 19.7499C13.8512 19.7291 13.2641 19.5673 12.7379 19.2776V19.3293C12.7387 20.203 13.0411 21.0497 13.594 21.7262C14.1468 22.4028 14.9163 22.8678 15.7724 23.0426C15.4479 23.1321 15.1128 23.1768 14.7762 23.1754C14.5318 23.1754 14.2957 23.1533 14.066 23.109C14.3074 23.8615 14.7781 24.5195 15.4123 24.9909C16.0464 25.4623 16.8122 25.7235 17.6023 25.7377C16.2617 26.7915 14.6054 27.3633 12.9002 27.361C12.5977 27.361 12.2951 27.3462 12 27.3094C13.731 28.4139 15.7417 29.0005 17.7951 29Z" fill="white"/>
<rect x="0.5" y="0.5" width="39" height="39" rx="7.5" stroke="#E5E5E5"/>
</svg>
